<svg xmlns="http://www.w3.org/2000/svg" xmlns:xlink="http://www.w3.org/1999/xlink" viewBox="0 0 357.42 80.8"><defs><style>.cls-1{fill:#fff;}.cls-2{fill:url(#무제_그라디언트_292);}.cls-3{fill:url(#무제_그라디언트_296);}.cls-4{fill:#e64633;}</style><linearGradient id="무제_그라디언트_292" x1="24.27" y1="74.99" x2="76.68" y2="74.99" gradientUnits="userSpaceOnUse"><stop offset="0" stop-color="#a36f23"/><stop offset="1" stop-color="#291105"/></linearGradient><linearGradient id="무제_그라디언트_296" x1="25.99" y1="40.4" x2="84.19" y2="40.4" gradientUnits="userSpaceOnUse"><stop offset="0" stop-color="#618634"/><stop offset="0.07" stop-color="#547d33"/><stop offset="0.26" stop-color="#356730"/><stop offset="0.43" stop-color="#21592f"/><stop offset="0.54" stop-color="#1a542e"/><stop offset="0.57" stop-color="#20582e"/><stop offset="0.75" stop-color="#437131"/><stop offset="0.9" stop-color="#598033"/><stop offset="1" stop-color="#618634"/></linearGradient></defs><g id="레이어_2" data-name="레이어 2"><g id="레이어_1-2" data-name="레이어 1"><path class="cls-1" d="M153.19,67.88h8.71v1.79h-4.44v1.21h5.23v1.79H150.26V70.88h5.16V69.67h-4.29V65.1h2.06Zm-2.3,8.52a2.24,2.24,0,0,1,1.37-2.11,12.93,12.93,0,0,1,8.45,0,2.32,2.32,0,0,1,0,4.23,12.93,12.93,0,0,1-8.45,0A2.24,2.24,0,0,1,150.89,76.4Zm2.06,0a.73.73,0,0,0,.48.67,11.59,11.59,0,0,0,6.11,0,.71.71,0,0,0,.48-.67.76.76,0,0,0-.48-.68,12.16,12.16,0,0,0-6.11,0A.77.77,0,0,0,153,76.4Z"/><path class="cls-1" d="M165.28,68.57a3.47,3.47,0,0,1,1.27-2.88,4.2,4.2,0,0,1,4.76,0,3.15,3.15,0,0,1,1.19,2h2.09V65h2.06v7.36h-2.06V69.43h-2.08a3.2,3.2,0,0,1-1.2,2,4.24,4.24,0,0,1-4.76,0A3.53,3.53,0,0,1,165.28,68.57Zm9.31,4.31h2.06V79H166.24v-6.1h2.06v1.44h6.29Zm-7.3-4.31a2,2,0,0,0,.56,1.49,1.7,1.7,0,0,0,2.17,0,2,2,0,0,0,.55-1.49A1.92,1.92,0,0,0,170,67.1a1.7,1.7,0,0,0-2.17,0A1.92,1.92,0,0,0,167.29,68.57Zm1,7.51v1.15h6.29V76.08Z"/><path class="cls-1" d="M180.49,71.72a3,3,0,0,1,1.17-2.45,3.9,3.9,0,0,1,2.4-.74,3.83,3.83,0,0,1,2.37.74,3.13,3.13,0,0,1,0,4.9,3.52,3.52,0,0,1-1.34.62v1.5h1.85a3.69,3.69,0,0,0,2.38-.57V65h2.06V78.83h-2.06V77.41a4.22,4.22,0,0,1-2.77.67h-6.66V76.29H183v-1.5a3.43,3.43,0,0,1-1.37-.62A3,3,0,0,1,180.49,71.72Zm4.57-5.51H188V68h-7.87V66.21H183V64.62h2.06Zm-2.52,5.51A1.49,1.49,0,0,0,183,72.8a1.57,1.57,0,0,0,1.07.38,1.53,1.53,0,0,0,1.05-.38,1.49,1.49,0,0,0,.45-1.08,1.42,1.42,0,0,0-1.5-1.46,1.52,1.52,0,0,0-1.07.38A1.47,1.47,0,0,0,182.54,71.72Z"/><path class="cls-1" d="M198.37,75a6.68,6.68,0,0,1-4,2.94V76c1.6-.72,3-2,3-5.87v-5h2.06v5c0,3.89,1.37,5.15,3,5.87v1.9A6.78,6.78,0,0,1,198.37,75Zm7.41-4.48h2.08v1.77h-2.08v6.56h-2.06V65h2.06Z"/><path class="cls-1" d="M214.54,67.08V65.19h2v2.66h2.27V65h2.06v7.57h-2.06v-3h-2.27v2.54h-6.88v-7h2v1.89Zm4.29,6h2.06V79H210.48V73.07h2.06v1.36h6.29Zm-4.29-4.23H211.7v1.57h2.84Zm-2,7.33v1.06h6.29V76.17Z"/><path class="cls-1" d="M224.26,69a4.14,4.14,0,0,1,1.18-3.22,4.2,4.2,0,0,1,5,0,5,5,0,0,1,0,6.44,4.12,4.12,0,0,1-5,0A4.12,4.12,0,0,1,224.26,69Zm1,9.91V74h2.06v3.1h8.59v1.78ZM226.28,69a2.73,2.73,0,0,0,.53,1.84,1.65,1.65,0,0,0,2.22,0,3.46,3.46,0,0,0,0-3.68,1.65,1.65,0,0,0-2.22,0A2.75,2.75,0,0,0,226.28,69Zm7.3,5.73V65h2.06v9.69Z"/><path class="cls-1" d="M241.67,64.62h2.06V66h2.77v1.7h-7.79V66h3Zm-2.55,6.57a2.66,2.66,0,0,1,.84-2,4.52,4.52,0,0,1,5.41,0,2.74,2.74,0,0,1,0,4,4.52,4.52,0,0,1-5.41,0A2.67,2.67,0,0,1,239.12,71.19Zm.85,7.7V74.65H242v2.46h8.6v1.78Zm1.12-7.7a1.06,1.06,0,0,0,.33.78,1.74,1.74,0,0,0,1.25.46,1.8,1.8,0,0,0,1.26-.46,1.09,1.09,0,0,0,.32-.78,1.13,1.13,0,0,0-.32-.8,1.84,1.84,0,0,0-1.26-.45,1.78,1.78,0,0,0-1.25.45A1.1,1.1,0,0,0,241.09,71.19Zm5.4-2.9h1.83V65h2.06V75h-2.06V73h-1.83v-1.7h1.83V70h-1.83Z"/><path class="cls-1" d="M253.49,71.79h12.42v1.79h-5V76h-2v-2.4h-5.34Zm.87-6.6H265v1.73h-4.33c.15,1.32,2.38,2.21,4.48,2.32V71a8.89,8.89,0,0,1-5.5-2,8.9,8.9,0,0,1-5.51,2V69.24c2.12-.11,4.32-1,4.47-2.32h-4.29Zm2.06,11.9h8.86v1.8H254.36V74.73h2.06Z"/><path class="cls-1" d="M272.37,64.3v1.79c-1.31,0-1.95.6-1.95,5.91s.64,5.93,1.95,5.93v1.78c-2.68,0-4.05-1.25-4.05-7.71S269.69,64.3,272.37,64.3Z"/><path class="cls-1" d="M274,73.67h12.28v1.79h-5.13v3.6h-2.06v-3.6H274Zm.69-8.48h10.9V67H281.2c.17,2.12,2.17,3.31,4.55,3.73V72.5a9.08,9.08,0,0,1-5.58-2.66,9.11,9.11,0,0,1-5.59,2.66V70.71C277,70.29,279,69.1,279.11,67h-4.38Z"/><path class="cls-1" d="M288,79.71V77.93c1.31,0,1.94-.62,1.94-5.93s-.63-5.91-1.94-5.91V64.3c2.66,0,4,1.27,4,7.7S290.65,79.71,288,79.71Z"/><path class="cls-1" d="M107.61,53.52V36.83H95.91V50.35a2.68,2.68,0,0,1-1.31,2.29,5.31,5.31,0,0,1-3,.88H84.86V14.24h11V29.8h11.7V14.24h11V50.35a2.68,2.68,0,0,1-1.31,2.29,5.28,5.28,0,0,1-3,.88Z"/><path class="cls-1" d="M136.73,53.52V37.19L123.94,14.24h11.54l6,12a4.06,4.06,0,0,1,.43,1.09,8.29,8.29,0,0,0,.38,1.13c.15-.33.29-.72.44-1.16a10.85,10.85,0,0,1,.43-1.11l5.77-12h11.6L147.73,37.19V50.35a2.68,2.68,0,0,1-1.31,2.29,5.31,5.31,0,0,1-3,.88Z"/><path class="cls-1" d="M195.22,50.28q-4.77,3.91-12.33,3.92t-12.3-3.92a12.26,12.26,0,0,1-4.79-9.91V14.19h11.1V40.05a7.33,7.33,0,0,0,1.74,5.24,5.65,5.65,0,0,0,4.25,1.83,5.8,5.8,0,0,0,4.33-1.83A7.26,7.26,0,0,0,189,40.05V14.19h11V40.37A12.32,12.32,0,0,1,195.22,50.28Z"/><path class="cls-1" d="M230.68,53.52,216.85,33.06c-.07-.15-.19-.5-.38-1.06a4.71,4.71,0,0,0-.43-1.07c0,.21.09.63.16,1.25s.11,1,.11,1.2v17A2.66,2.66,0,0,1,215,52.64a5.28,5.28,0,0,1-3,.88h-6.7V14.24h10l13.56,20a4.41,4.41,0,0,1,.49,1.07,6.35,6.35,0,0,0,.49,1.16,10.57,10.57,0,0,0-.11-1.18,8.84,8.84,0,0,1-.11-1.14V14.24h11.1V50.35a2.67,2.67,0,0,1-1.3,2.29,5.33,5.33,0,0,1-3.05.88Z"/><path class="cls-1" d="M273,50.5a17.09,17.09,0,0,1-10.86,3.34,14.9,14.9,0,0,1-9.5-3.11,10.55,10.55,0,0,1-4.11-8.37H259a6.07,6.07,0,0,0,1.17,3.34,3,3,0,0,0,2.32,1.11,3.22,3.22,0,0,0,2.55-1.5q1.15-1.5,1.15-5.08v-26h11.1V40.55Q277.3,47.17,273,50.5Z"/><path class="cls-1" d="M312,50.28q-4.75,3.91-12.33,3.92c-5,0-9.11-1.31-12.3-3.92a12.29,12.29,0,0,1-4.79-9.91V14.19h11.11V40.05a7.33,7.33,0,0,0,1.74,5.24,5.62,5.62,0,0,0,4.24,1.83A5.79,5.79,0,0,0,304,45.29a7.26,7.26,0,0,0,1.77-5.24V14.19h11V40.37A12.29,12.29,0,0,1,312,50.28Z"/><path class="cls-1" d="M347.46,53.52,333.64,33.06a8.82,8.82,0,0,1-.38-1.06,5.08,5.08,0,0,0-.44-1.07c0,.21.09.63.16,1.25a11.32,11.32,0,0,1,.11,1.2v17a2.67,2.67,0,0,1-1.3,2.29,5.31,5.31,0,0,1-3.05.88H322V14.24h10l13.55,20a4.05,4.05,0,0,1,.49,1.07,6.35,6.35,0,0,0,.49,1.16,10.57,10.57,0,0,0-.11-1.18,11.21,11.21,0,0,1-.11-1.14V14.24h11.1V50.35a2.67,2.67,0,0,1-1.3,2.29,5.31,5.31,0,0,1-3.05.88Z"/><polygon class="cls-2" points="30.14 69.18 24.27 80.8 65.77 80.8 59.84 69.18 30.14 69.18"/><path class="cls-3" d="M43.16,0,38.52,8.45c-1.08,2-2.19,4.05-3.28,6.07l-.11.22c-.55,1-1.52,3-2.56,5.06-.68,1.38-1.48,3-2.1,4.2L26,31.74l7,.1h.29l6.81.1,2.62-4.14c.11-.21.23-.42.35-.63l.47.86c2.76,5,7.79,15.52,12.68,25.74,4.78,10,9.29,19.42,12,24.42l1.4,2.6H84.19Z"/><path class="cls-4" d="M23,37.75c-1,1.73-2,3.36-3.09,5.5l-.12.23c-3.37,6.37-6.55,12.4-10.19,19.15l-.08.15c-1,1.89-2.06,3.93-3,5.82s-1.89,3.7-2.84,5.45L0,80.8H19.25L25,69.18H20.22l3.46-6.55.14-.28c3.42-6.46,7-13.15,10.33-19.43l4-7.11h-14Z"/></g></g></svg>