<svg xmlns="http://www.w3.org/2000/svg" xmlns:xlink="http://www.w3.org/1999/xlink" viewBox="0 0 548.03 153.94"><defs><style>.cls-1{fill:#fff;}.cls-2{fill:url(#무제_그라디언트_292);}.cls-3{fill:#d94833;}.cls-4{fill:url(#무제_그라디언트_296);}</style><linearGradient id="무제_그라디언트_292" x1="32.92" y1="144.64" x2="129.98" y2="144.64" gradientUnits="userSpaceOnUse"><stop offset="0" stop-color="#9f6d24"/><stop offset="1" stop-color="#291207"/></linearGradient><linearGradient id="무제_그라디언트_296" x1="49.91" y1="76.97" x2="549.49" y2="76.97" gradientUnits="userSpaceOnUse"><stop offset="0" stop-color="#608333"/><stop offset="0.06" stop-color="#547b32"/><stop offset="0.26" stop-color="#35652f"/><stop offset="0.43" stop-color="#21582d"/><stop offset="0.54" stop-color="#1a532c"/><stop offset="0.56" stop-color="#1f562c"/><stop offset="0.75" stop-color="#426f30"/><stop offset="0.9" stop-color="#587e32"/><stop offset="1" stop-color="#608333"/></linearGradient></defs><g id="레이어_2" data-name="레이어 2"><g id="레이어_1-2" data-name="레이어 1"><path class="cls-1" d="M219.1,139.63v-2.9h9.78v-2.57H222v-8.89h3.69v6h14.08v2.94h-7.21v2.57h9.81v2.9Zm20.48,6.15c0,3-3.38,4.81-8.94,4.81s-8.91-1.77-8.91-4.81,3.35-4.78,8.91-4.78S239.58,142.73,239.58,145.78Zm-3.74,0c0-1.37-1.71-2-5.2-2s-5.2.59-5.2,2,1.74,2,5.2,2S235.84,147.09,235.84,145.78Z"/><path class="cls-1" d="M262.61,138.65v-5.16h-4.08c-.67,2.76-3.35,4.69-6.65,4.69-3.86,0-6.76-2.57-6.76-6.15s2.9-6.14,6.76-6.14c3.3,0,5.87,1.84,6.62,4.61h4.11v-5.67h3.69v13.82ZM255.15,132a3.26,3.26,0,1,0-3.27,3.08A3,3,0,0,0,255.15,132Zm11.15,18.22h-17V139.77h3.65v2.46h9.73v-2.46h3.66Zm-13.39-2.91h9.73V145h-9.73Z"/><path class="cls-1" d="M286.92,142.56l.28,2.66a90,90,0,0,1-16.12,1.06l-.45-3c1.93,0,4.05,0,6.4,0v-2.18c-2.8-.53-4.56-2.26-4.56-4.64,0-2.91,2.63-4.86,6.4-4.86s6.37,1.95,6.37,4.86c0,2.38-1.73,4.11-4.53,4.64v2A61.81,61.81,0,0,0,286.92,142.56Zm-15.79-14.88H277v-2.77h3.68v2.77h5.87v2.87H271.13Zm7.74,10.78c1.79,0,2.88-.73,2.88-2s-1.09-2.07-2.88-2.07-2.88.73-2.88,2.07S277.17,138.46,278.87,138.46Zm9.39,12.1V124.83h3.68v25.73Z"/><path class="cls-1" d="M311.62,141.9l-2.24,2.9a11.56,11.56,0,0,1-5.55-6.93,12.3,12.3,0,0,1-6,7.41l-2.2-3c4.33-2,6.28-7,6.28-11.74v-3.74h3.72v3.74C305.67,135.19,307.49,139.88,311.62,141.9Zm4.72,8.66h-3.69V124.83h3.69v9.88h3.74v3.08h-3.74Z"/><path class="cls-1" d="M339.73,138.93v-5.28h-4.58v4.53H323v-12h3.67v3.24h4.88v-3.24h3.61v4.55h4.58v-5.86h3.69v14.1Zm3.69,11.29h-17V140H330v2.3h9.75V140h3.66Zm-16.76-15h4.88V132.2h-4.88ZM330,147.32h9.75v-2.18H330Z"/><path class="cls-1" d="M355,139.52c-3.94,0-7-2.77-7-6.51s3.08-6.54,7-6.54,7,2.74,7,6.54S358.93,139.52,355,139.52Zm0-3.18a3.34,3.34,0,1,0,0-6.68,3.34,3.34,0,1,0,0,6.68Zm-3.13,13.77V141.5h3.69v5.67h14.08v2.94Zm13.41-25.26H369v18.47h-3.71Z"/><path class="cls-1" d="M380.84,138.21A26.56,26.56,0,0,1,385,123.76l2.57,1.09a27.92,27.92,0,0,0,0,26.74L385,152.68A26.58,26.58,0,0,1,380.84,138.21Z"/><path class="cls-1" d="M403.64,150.61H400V142h-9.7v-2.93H413.5V142h-9.86Zm-3.94-21.54h-7.41v-2.93h19.09v2.93h-7.3c.37,2.49,3.05,4.94,8.3,5.62l-1.31,2.87c-4.5-.64-7.63-2.48-9.19-5.16-1.57,2.68-4.7,4.52-9.2,5.16l-1.34-2.87C396.62,134,399.34,131.56,399.7,129.07Z"/><path class="cls-1" d="M419.59,138.21a26.53,26.53,0,0,0-3.41-13.36l2.54-1.09a26.26,26.26,0,0,1,4.2,14.45,26.52,26.52,0,0,1-4.2,14.47l-2.54-1.09A26.47,26.47,0,0,0,419.59,138.21Z"/><path class="cls-1" d="M426.58,127.53H432v-2.79h3.69v2.79h5v2.88H426.58Zm7.23,13.92c-3.52,0-6-2.1-6-5.09s2.51-5,6-5,6,2,6,5S437.31,141.45,433.81,141.45ZM431,150.11v-7.27h3.69v4.33h13.86v2.94Zm2.79-11.51c1.48,0,2.55-.78,2.55-2.24s-1.07-2.2-2.55-2.2-2.56.78-2.56,2.2S432.25,138.6,433.81,138.6Zm7.16-1.87h3.35v-2.57H441v-2.94h3.35v-6.39H448v19.61h-3.69v-4.78H441Z"/><path class="cls-1" d="M466,140.56v4.35h-3.69v-4.35H452.17v-2.91h23.34v2.91Zm-4.78-11.71h-6.9v-2.93h19.05v2.93h-6.93c.45,2.07,2.93,4.16,8,4.69l-1.34,2.88c-4.94-.53-7.9-2.46-9.27-5.14-1.32,2.65-4.45,4.61-9.28,5.14l-1.31-2.88C458.21,133,460.78,130.86,461.23,128.85Zm11.67,21.26h-18v-7.4h3.68v4.46H472.9Z"/><path class="cls-1" d="M180.09,100.55V76H162.85V95.88a3.93,3.93,0,0,1-1.92,3.37,7.82,7.82,0,0,1-4.49,1.3h-9.87V42.7h16.28V65.61h17.24V42.7h16.27V95.88a3.93,3.93,0,0,1-1.92,3.37,7.82,7.82,0,0,1-4.49,1.3Z"/><path class="cls-1" d="M223,100.55v-24L204.14,42.7h17L230,60.4a6,6,0,0,1,.64,1.6,11.21,11.21,0,0,0,.57,1.67c.21-.49.42-1.05.64-1.7a13.12,13.12,0,0,1,.64-1.64l8.5-17.63H258L239.17,76.5V95.88a3.93,3.93,0,0,1-1.92,3.37,7.8,7.8,0,0,1-4.49,1.3Z"/><path class="cls-1" d="M309.12,95.78q-7,5.77-18.16,5.78t-18.12-5.78a18.1,18.1,0,0,1-7-14.6V42.63h16.36V80.71q0,5,2.56,7.72a8.29,8.29,0,0,0,6.25,2.7,8.52,8.52,0,0,0,6.38-2.7q2.6-2.72,2.6-7.72V42.63h16.2V81.18A18.13,18.13,0,0,1,309.12,95.78Z"/><path class="cls-1" d="M361.35,100.55,341,70.42a15.72,15.72,0,0,1-.56-1.57,7.42,7.42,0,0,0-.64-1.57c0,.31.13.93.24,1.84s.16,1.5.16,1.77v25a3.91,3.91,0,0,1-1.93,3.37,7.78,7.78,0,0,1-4.49,1.3h-9.86V42.7h14.68l20,29.46a6,6,0,0,1,.72,1.57,9.83,9.83,0,0,0,.72,1.7,14.21,14.21,0,0,0-.16-1.73,14.41,14.41,0,0,1-.16-1.67V42.7H376V95.88a3.94,3.94,0,0,1-1.93,3.37,7.8,7.8,0,0,1-4.49,1.3Z"/><path class="cls-1" d="M423.73,96.11q-6.3,4.9-16,4.91a22,22,0,0,1-14-4.58,15.52,15.52,0,0,1-6.05-12.32h15.39A8.76,8.76,0,0,0,404.81,89a4.33,4.33,0,0,0,3.4,1.64A4.76,4.76,0,0,0,412,88.46q1.69-2.2,1.69-7.48V42.7H430V81.45Q430,91.2,423.73,96.11Z"/><path class="cls-1" d="M481.13,95.78q-7,5.77-18.16,5.78t-18.12-5.78a18.1,18.1,0,0,1-7.05-14.6V42.63h16.35V80.71q0,5,2.57,7.72a8.29,8.29,0,0,0,6.25,2.7,8.5,8.5,0,0,0,6.37-2.7Q472,85.72,472,80.71V42.63h16.19V81.18A18.12,18.12,0,0,1,481.13,95.78Z"/><path class="cls-1" d="M533.36,100.55,513,70.42a13.41,13.41,0,0,1-.56-1.57,7.42,7.42,0,0,0-.64-1.57c.05.31.13.93.24,1.84s.16,1.5.16,1.77v25a3.91,3.91,0,0,1-1.93,3.37,7.8,7.8,0,0,1-4.49,1.3h-9.86V42.7h14.67l20,29.46a6,6,0,0,1,.72,1.57,8.47,8.47,0,0,0,.72,1.7,16.65,16.65,0,0,0-.16-1.73,14.41,14.41,0,0,1-.16-1.67V42.7H548V95.88a3.93,3.93,0,0,1-1.92,3.37,7.8,7.8,0,0,1-4.49,1.3Z"/><polygon class="cls-2" points="49.18 135.34 39.79 153.94 129.98 153.94 120.48 135.34 49.18 135.34"/><path class="cls-3" d="M33.42,135.34l6.51-12.08,2.79-5.19c6.9-12.81,14-26,20.91-38.61l9.13-17.29H49.49Q44,72.32,38.86,81.86l-.32.58c-6.92,12.87-13.47,25-21.13,39-2,3.64-4,7.54-6.05,11.43-1.92,3.68-3.9,7.48-5.84,11L0,153.94H32.92l9.39-18.6Z"/><polygon class="cls-3" points="42.31 135.34 32.92 153.94 33.87 153.94 43.27 135.34 42.31 135.34"/><path class="cls-4" d="M82.13,0,75,13.07c-2.14,3.91-4.37,8.05-6.52,12.05l-.24.46c-1,1.86-2.78,5.45-4.7,9.33l-.51,1c-1.45,2.92-2.92,5.88-4.06,8.12l-6.6,12.21-.82,1.51h.35l22.67.33,1-1.85h.32l1.81-3.43h-.22L82,44.59,85,49.92C90.52,60,100.56,81,110.31,101.39c9.52,19.87,18.51,38.65,23.87,48.56l2.16,4h24Z"/></g></g></svg>